<svg width="14" height="10" viewBox="0 0 14 10" fill="none" xmlns="http://www.w3.org/2000/svg">
<path fill-rule="evenodd" clip-rule="evenodd" d="M0.5 3C0.5 1.61929 1.61929 0.5 3 0.5H11C12.3807 0.5 13.5 1.61929 13.5 3V7C13.5 8.38071 12.3807 9.5 11 9.5H3C1.61929 9.5 0.5 8.38071 0.5 7V3ZM1.67762 2.29135C1.56429 2.50239 1.5 2.74369 1.5 3V7C1.5 7.82843 2.17157 8.5 3 8.5H11C11.8284 8.5 12.5 7.82843 12.5 7V3C12.5 2.63358 12.3686 2.29784 12.1504 2.03734L7.97242 5.7975C7.42195 6.29292 6.5923 6.31246 6.01912 5.84349L1.67762 2.29135ZM2.42774 1.61303L6.65236 5.06954C6.84342 5.22586 7.11997 5.21935 7.30346 5.0542L11.2327 1.51793C11.1568 1.50613 11.0791 1.5 11 1.5H3C2.79735 1.5 2.60408 1.54019 2.42774 1.61303Z" fill="#efebe7"/>
</svg>
