<svg width="12" height="12" viewBox="0 0 12 12" fill="none" xmlns="http://www.w3.org/2000/svg">
<path fill-rule="evenodd" clip-rule="evenodd" d="M5.99952 1.08192C7.60156 1.08192 7.79113 1.08812 8.4239 1.11693C9.0088 1.14361 9.3265 1.24125 9.53797 1.32341C9.79888 1.41948 10.0349 1.57289 10.2286 1.77233C10.4281 1.96604 10.5815 2.20206 10.6775 2.46297C10.7597 2.67445 10.8573 2.99214 10.884 3.57704C10.9128 4.20981 10.919 4.39938 10.919 6.00143C10.919 7.60348 10.9128 7.79304 10.884 8.42581C10.8573 9.01071 10.7597 9.32841 10.6775 9.53989C10.5776 9.79857 10.4247 10.0335 10.2286 10.2296C10.0325 10.4257 9.79761 10.5786 9.53893 10.6785C9.32745 10.7607 9.00975 10.8583 8.42485 10.885C7.79232 10.9138 7.60252 10.92 6.00047 10.92C4.39842 10.92 4.20862 10.9138 3.57609 10.885C2.99118 10.8583 2.67349 10.7607 2.46201 10.6785C2.2011 10.5824 1.96509 10.429 1.77137 10.2296C1.57193 10.0359 1.41852 9.79984 1.32246 9.53894C1.24029 9.32746 1.14265 9.00976 1.11598 8.42486C1.08716 7.79209 1.08097 7.60252 1.08097 6.00048C1.08097 4.39843 1.08716 4.20886 1.11598 3.57609C1.14265 2.99119 1.24029 2.67349 1.32246 2.46201C1.41852 2.20111 1.57193 1.96509 1.77137 1.77137C1.96509 1.57194 2.2011 1.41853 2.46201 1.32246C2.67349 1.2403 2.99118 1.14265 3.57609 1.11598C4.20885 1.08716 4.39842 1.08097 6.00047 1.08097L5.99952 1.08192ZM6.00047 0C4.37104 0 4.1667 0.0069064 3.52679 0.0361991C2.88687 0.0654918 2.45106 0.167659 2.07001 0.315789C1.66959 0.466527 1.3068 0.702693 1.00691 1.00786C0.701739 1.30776 0.465574 1.67054 0.314836 2.07097C0.166706 2.45201 0.0652536 2.88878 0.036199 3.52727C0.00714455 4.16575 0 4.37104 0 6.00048C0 7.62991 0.00690639 7.83424 0.036199 8.47416C0.0654917 9.11407 0.166706 9.54894 0.314836 9.92998C0.465635 10.3302 0.701797 10.6929 1.00691 10.9926C1.3067 11.298 1.66951 11.5342 2.07001 11.6849C2.45106 11.8333 2.88783 11.9347 3.52631 11.9638C4.1648 11.9929 4.37056 12 5.99999 12C7.62943 12 7.83376 11.9931 8.47367 11.9638C9.11359 11.9345 9.54798 11.8333 9.92902 11.6849C10.3277 11.5309 10.6898 11.2952 10.992 10.993C11.2942 10.6907 11.5299 10.3287 11.684 9.92998C11.8323 9.54894 11.9338 9.11217 11.9628 8.47368C11.9919 7.8352 11.999 7.62943 11.999 6C11.999 4.37056 11.9921 4.16623 11.9628 3.52632C11.9335 2.8864 11.8323 2.45201 11.684 2.07097C11.5333 1.67068 11.2972 1.30804 10.9921 1.00834C10.6923 0.702997 10.3295 0.466666 9.92902 0.315789C9.54798 0.167659 9.11121 0.0662062 8.47272 0.0371517C7.83424 0.00809716 7.62895 0.000952607 5.99952 0.000952607L6.00047 0ZM5.99952 2.92006C5.39021 2.92006 4.79458 3.10074 4.28796 3.43926C3.78134 3.77777 3.38647 4.25892 3.1533 4.82185C2.92012 5.38478 2.85911 6.00422 2.97799 6.60182C3.09686 7.19942 3.39027 7.74836 3.82112 8.17921C4.25197 8.61006 4.8009 8.90347 5.3985 9.02234C5.99611 9.14121 6.61554 9.0802 7.17847 8.84703C7.7414 8.61385 8.22255 8.21899 8.56106 7.71236C8.89958 7.20574 9.08026 6.61011 9.08026 6.0008C9.08029 5.59622 9.00063 5.1956 8.84582 4.82181C8.69101 4.44803 8.46408 4.1084 8.178 3.82232C7.89192 3.53624 7.55229 3.30932 7.17851 3.1545C6.80472 2.99969 6.4041 2.92003 5.99952 2.92006ZM5.99952 8.00128C5.60387 8.00128 5.2171 7.88395 4.88812 7.66413C4.55914 7.44432 4.30274 7.13189 4.15132 6.76635C3.99991 6.40081 3.9603 5.99858 4.03749 5.61052C4.11468 5.22247 4.3052 4.86602 4.58497 4.58625C4.86475 4.30647 5.2212 4.11595 5.60925 4.03876C5.99731 3.96157 6.39953 4.00119 6.76507 4.1526C7.13061 4.30401 7.44305 4.56041 7.66286 4.88939C7.88268 5.21837 8 5.60514 8 6.0008C8 6.53136 7.78924 7.04019 7.41408 7.41535C7.03891 7.79051 6.53008 8.00128 5.99952 8.00128ZM9.92212 2.79813C9.92212 3.19574 9.5998 3.51806 9.20219 3.51806C8.80458 3.51806 8.48226 3.19574 8.48226 2.79813C8.48226 2.40052 8.80458 2.07819 9.20219 2.07819C9.5998 2.07819 9.92212 2.40052 9.92212 2.79813Z" fill="white"/>
</svg>
