<svg width="12" height="10" viewBox="0 0 12 10" fill="none" xmlns="http://www.w3.org/2000/svg">
<path d="M10.7715 2.42743C10.7788 2.53322 10.7788 2.63901 10.7788 2.74577C10.7788 5.99891 8.30225 9.75077 3.7738 9.75077V9.74882C2.43608 9.75077 1.12614 9.36759 0 8.6451C0.194516 8.6685 0.390006 8.6802 0.585984 8.68069C1.69458 8.68166 2.77148 8.3097 3.64363 7.62475C2.59013 7.60476 1.6663 6.91786 1.34357 5.91506C1.71261 5.98623 2.09287 5.97161 2.45509 5.87264C1.30652 5.64059 0.480195 4.63145 0.480195 3.45948C0.480195 3.44876 0.480195 3.43852 0.480195 3.42828C0.822425 3.6189 1.20561 3.72469 1.59756 3.73639C0.515783 3.01341 0.182328 1.57429 0.835588 0.449122C2.08556 1.98721 3.9298 2.92225 5.90957 3.02121C5.71115 2.16612 5.98221 1.27009 6.62182 0.668988C7.61341 -0.263126 9.17294 -0.21535 10.1051 0.775753C10.6564 0.667038 11.1849 0.464723 11.6685 0.178068C11.4847 0.747965 11.1001 1.23206 10.5862 1.53968C11.0742 1.48215 11.551 1.3515 12 1.15211C11.6695 1.64742 11.2531 2.07886 10.7715 2.42743Z" fill="white"/>
</svg>
